<svg version="1.1" xmlns="http://www.w3.org/2000/svg" xmlns:xlink="http://www.w3.org/1999/xlink" width="524" height="249"><g transform="translate(21,-127)"><g data-paper-data="{&quot;isPaintingLayer&quot;:true}" fill="none" fill-rule="nonzero" stroke="none" stroke-width="0" stroke-linecap="butt" stroke-linejoin="miter" stroke-miterlimit="10" stroke-dasharray="" stroke-dashoffset="0" font-family="none" font-weight="none" font-size="none" text-anchor="none" style="mix-blend-mode: normal"><path d="M-3,228v-101h484v101z" data-paper-data="{&quot;origPos&quot;:null}" fill="#e3faff"/><g data-paper-data="{&quot;origPos&quot;:null}"><path d="M-21,232c0,-16.01626 11.86446,-29 26.5,-29c14.63555,0 26.5,12.98374 26.5,29c0,16.01626 -11.86445,29 -26.5,29c-14.63554,0 -26.5,-12.98374 -26.5,-29z" fill="#cce4ff"/><path d="M22,212c0,-12.15026 10.96903,-22 24.5,-22c13.53097,0 24.5,9.84974 24.5,22c0,12.15026 -10.96903,22 -24.5,22c-13.53097,0 -24.5,-9.84974 -24.5,-22z" fill="#cce4ff"/><path d="M49,242c0,-19.88225 27.9822,-36 62.5,-36c34.5178,0 62.5,16.11775 62.5,36c0,19.88225 -27.9822,36 -62.5,36c-34.5178,0 -62.5,-16.11775 -62.5,-36z" fill="#cce4ff"/><path d="M146,210.5c0,-12.4264 10.74516,-22.5 24,-22.5c13.25484,0 24,10.0736 24,22.5c0,12.4264 -10.74516,22.5 -24,22.5c-13.25484,0 -24,-10.0736 -24,-22.5z" fill="#cce4ff"/><path d="M176,187.5c0,-10.76955 9.84974,-19.5 22,-19.5c12.15026,0 22,8.73045 22,19.5c0,10.76955 -9.84974,19.5 -22,19.5c-12.15026,0 -22,-8.73045 -22,-19.5z" fill="#cce4ff"/><path d="M179,215.5c0,-17.94925 22.38576,-32.5 50,-32.5c27.61424,0 50,14.55075 50,32.5c0,17.94925 -22.38576,32.5 -50,32.5c-27.61424,0 -50,-14.55075 -50,-32.5z" fill="#cce4ff"/><path d="M261,235.5c0,-12.4264 11.6406,-22.5 26,-22.5c14.3594,0 26,10.0736 26,22.5c0,12.4264 -11.6406,22.5 -26,22.5c-14.3594,0 -26,-10.0736 -26,-22.5z" fill="#cce4ff"/><path d="M292,211c0,-24.30053 39.39894,-44 88,-44c48.60106,0 88,19.69947 88,44c0,24.30053 -39.39894,44 -88,44c-48.60106,0 -88,-19.69947 -88,-44z" fill="#cce4ff"/><path d="M483,253c-11.0457,0 -20,-11.64059 -20,-26c0,-14.35941 8.9543,-26 20,-26c11.0457,0 20,11.64059 20,26c0,14.35941 -8.9543,26 -20,26z" fill="#cce4ff"/><path d="M-1,300v-78h482v78z" fill="#cce4ff"/><path d="M476.5,337c-14.63554,0 -26.5,-12.98374 -26.5,-29c0,-16.01626 11.86446,-29 26.5,-29c14.63554,0 26.5,12.98374 26.5,29c0,16.01626 -11.86446,29 -26.5,29z" data-paper-data="{&quot;origPos&quot;:null,&quot;index&quot;:null}" fill="#ffffff"/><path d="M435.5,310c-13.53098,0 -24.5,-9.84974 -24.5,-22c0,-12.15026 10.96902,-22 24.5,-22c13.53098,0 24.5,9.84974 24.5,22c0,12.15026 -10.96902,22 -24.5,22z" data-paper-data="{&quot;origPos&quot;:null,&quot;index&quot;:null}" fill="#ffffff"/><path d="M370.5,354c-34.51779,0 -62.5,-16.11775 -62.5,-36c0,-19.88225 27.98221,-36 62.5,-36c34.51779,0 62.5,16.11775 62.5,36c0,19.88225 -27.98221,36 -62.5,36z" data-paper-data="{&quot;origPos&quot;:null,&quot;index&quot;:null}" fill="#ffffff"/><path d="M312,309c-13.25484,0 -24,-10.0736 -24,-22.5c0,-12.4264 10.74516,-22.5 24,-22.5c13.25484,0 24,10.0736 24,22.5c0,12.4264 -10.74516,22.5 -24,22.5z" data-paper-data="{&quot;origPos&quot;:null,&quot;index&quot;:null}" fill="#ffffff"/><path d="M284,283c-12.15026,0 -22,-8.73045 -22,-19.5c0,-10.76955 9.84974,-19.5 22,-19.5c12.15026,0 22,8.73045 22,19.5c0,10.76955 -9.84974,19.5 -22,19.5z" data-paper-data="{&quot;origPos&quot;:null,&quot;index&quot;:null}" fill="#ffffff"/><path d="M253,324c-27.61424,0 -50,-14.55075 -50,-32.5c0,-17.94925 22.38576,-32.5 50,-32.5c27.61424,0 50,14.55075 50,32.5c0,17.94925 -22.38576,32.5 -50,32.5z" data-paper-data="{&quot;origPos&quot;:null,&quot;index&quot;:null}" fill="#ffffff"/><path d="M195,334c-14.35941,0 -26,-10.0736 -26,-22.5c0,-12.4264 11.64059,-22.5 26,-22.5c14.35941,0 26,10.0736 26,22.5c0,12.4264 -11.64059,22.5 -26,22.5z" data-paper-data="{&quot;origPos&quot;:null,&quot;index&quot;:null}" fill="#ffffff"/><path d="M102,331c-48.60106,0 -88,-19.69947 -88,-44c0,-24.30053 39.39894,-44 88,-44c48.60106,0 88,19.69947 88,44c0,24.30053 -39.39894,44 -88,44z" data-paper-data="{&quot;origPos&quot;:null,&quot;index&quot;:null}" fill="#ffffff"/><path d="M-21,303c0,-14.35941 8.95431,-26 20,-26c11.0457,0 20,11.64059 20,26c0,14.3594 -8.9543,26 -20,26c-11.04569,0 -20,-11.6406 -20,-26z" data-paper-data="{&quot;origPos&quot;:null,&quot;index&quot;:null}" fill="#ffffff"/><path d="M-1,376v-78h482v78z" data-paper-data="{&quot;origPos&quot;:null,&quot;index&quot;:null}" fill="#ffffff"/></g></g></g></svg>