<?xml version="1.0" encoding="utf-8"?>
<!-- Svg Vector Icons : http://www.onlinewebfonts.com/icon -->
<!DOCTYPE svg PUBLIC "-//W3C//DTD SVG 1.1//EN" "http://www.w3.org/Graphics/SVG/1.1/DTD/svg11.dtd">
<svg version="1.1" xmlns="http://www.w3.org/2000/svg" xmlns:xlink="http://www.w3.org/1999/xlink" x="0px" y="0px" viewBox="0 0 1000 1000" enable-background="new 0 0 1000 1000" xml:space="preserve">
<metadata> Svg Vector Icons : http://www.onlinewebfonts.com/icon </metadata>
<g><path d="M500,10C229.4,10,10,229.4,10,500c0,270.6,219.4,490,490,490c270.6,0,490-219.4,490-490C990,229.4,770.6,10,500,10z M752.7,696c0,19.9-15.8,36.1-35.4,36.1H292.9c-19.5,0-35.4-16.2-35.4-36.1V334.9c0-19.9,15.8-36.1,35.4-36.1h424.4c19.5,0,35.4,16.2,35.4,36.1L752.7,696L752.7,696z M309.2,680.5h392V402h-392V680.5z M432.9,432.9h216.6v20.6H432.9V432.9z M432.9,474.2h216.6v20.6H432.9V474.2z M360.7,432.9H402v61.9h-41.3V432.9z M360.7,525.8h288.8v20.6H360.7V525.8z M360.7,577.4h288.8V598H360.7V577.4z M360.7,629h288.8v20.6H360.7V629z M463.9,360.7h237.3v-30.9H463.9V360.7z M337.2,344c0-10-7.9-18.1-17.7-18.1c-9.8,0-17.7,8.1-17.7,18.1c0,10,7.9,18.1,17.7,18.1C329.2,362,337.2,353.9,337.2,344z M372.5,362c9.8,0,17.7-8.1,17.7-18.1c0-10-7.9-18.1-17.7-18.1c-9.8,0-17.7,8.1-17.7,18.1C354.8,353.9,362.8,362,372.5,362z M426.7,362c9.8,0,17.7-8.1,17.7-18.1c0-10-7.9-18.1-17.7-18.1c-9.8,0-17.7,8.1-17.7,18.1C409,353.9,416.9,362,426.7,362z"/></g>
</svg>